<?xml version="1.0" encoding="UTF-8" standalone="no"?>
<!DOCTYPE svg PUBLIC "-//W3C//DTD SVG 1.1//EN" "http://www.w3.org/Graphics/SVG/1.1/DTD/svg11.dtd">
<svg width="100%" height="100%" viewBox="0 0 25 25" version="1.1" xmlns="http://www.w3.org/2000/svg" xmlns:xlink="http://www.w3.org/1999/xlink" xml:space="preserve" xmlns:serif="http://www.serif.com/" style="fill-rule:evenodd;clip-rule:evenodd;stroke-linejoin:round;stroke-miterlimit:2;">
    <g transform="matrix(1,0,0,1,-4219.55,-227)">
        <g id="Artboard8" transform="matrix(0.173832,0,0,0.173457,3470.84,218.947)">
            <rect x="4307.04" y="46.429" width="143.817" height="144.128" style="fill:none;"/>
            <g id="buymeacoffee.svg" transform="matrix(5.99236,0,0,6.00532,4378.95,118.493)">
                <g transform="matrix(1,0,0,1,-12,-12)">
                    <path d="M20.216,6.415L20.084,5.749C19.965,5.151 19.696,4.586 19.083,4.37C18.886,4.301 18.663,4.272 18.513,4.129C18.361,3.986 18.317,3.763 18.282,3.557C18.217,3.179 18.157,2.801 18.09,2.424C18.033,2.099 17.988,1.734 17.84,1.437C17.645,1.037 17.243,0.803 16.844,0.649C16.639,0.572 16.43,0.508 16.218,0.455C15.218,0.192 14.168,0.095 13.141,0.039C11.908,-0.029 10.671,-0.008 9.441,0.101C8.526,0.184 7.561,0.285 6.691,0.601C6.373,0.717 6.045,0.857 5.803,1.102C5.506,1.404 5.41,1.872 5.626,2.248C5.78,2.515 6.041,2.704 6.318,2.828C6.678,2.99 7.055,3.112 7.441,3.194C8.516,3.432 9.63,3.525 10.728,3.564C11.946,3.614 13.165,3.574 14.378,3.446C14.677,3.413 14.976,3.373 15.274,3.327C15.626,3.273 15.852,2.814 15.748,2.493C15.624,2.11 15.291,1.962 14.914,2.02C14.448,2.094 13.954,2.128 13.532,2.166C12.355,2.246 11.174,2.248 9.996,2.172C9.609,2.146 9.224,2.111 8.839,2.065C8.753,2.055 8.659,2.04 8.581,2.029C8.338,1.993 8.097,1.949 7.857,1.899C7.746,1.872 7.746,1.714 7.857,1.687L7.862,1.687C8.139,1.627 8.419,1.579 8.7,1.54L8.702,1.54C8.833,1.531 8.965,1.508 9.096,1.492C10.234,1.374 11.379,1.334 12.522,1.372C13.196,1.391 13.869,1.439 14.539,1.516L14.767,1.547C15.034,1.587 15.3,1.635 15.565,1.692C15.957,1.777 16.46,1.805 16.635,2.234C16.69,2.371 16.715,2.522 16.746,2.665L17.065,4.149C17.068,4.165 17.07,4.182 17.07,4.198C17.07,4.316 16.983,4.417 16.866,4.433L16.863,4.433C16.826,4.439 16.788,4.443 16.751,4.448C15.178,4.649 13.594,4.747 12.008,4.743C10.437,4.741 8.867,4.64 7.309,4.439C7.169,4.422 7.016,4.397 6.892,4.379C6.566,4.331 6.243,4.271 5.919,4.218C5.526,4.153 5.151,4.186 4.796,4.379C4.506,4.539 4.269,4.783 4.121,5.08C3.967,5.396 3.922,5.74 3.854,6.08C3.785,6.42 3.678,6.787 3.719,7.136C3.806,7.889 4.332,8.501 5.089,8.638C8.832,9.306 12.653,9.433 16.432,9.014C16.45,9.012 16.468,9.011 16.487,9.011C16.752,9.011 16.97,9.229 16.97,9.494C16.97,9.511 16.969,9.527 16.967,9.544L16.896,10.241L15.878,20.148C15.837,20.558 15.831,20.98 15.753,21.385C15.631,22.022 15.2,22.413 14.571,22.556C13.994,22.687 13.406,22.756 12.815,22.761C12.159,22.765 11.505,22.736 10.849,22.739C10.15,22.743 9.293,22.679 8.754,22.159C8.279,21.701 8.214,20.985 8.149,20.366L7.418,13.353L7.096,10.259C7.059,9.908 6.81,9.564 6.418,9.581C6.082,9.596 5.7,9.881 5.74,10.26L5.968,12.445L6.917,21.557C7.064,22.901 8.091,23.625 9.363,23.829C10.105,23.949 10.866,23.973 11.62,23.985C12.586,24.001 13.562,24.038 14.512,23.863C15.92,23.605 16.977,22.665 17.128,21.206C17.468,17.874 17.811,14.543 18.152,11.211L18.367,9.124C18.389,8.912 18.548,8.738 18.757,8.698C19.159,8.62 19.544,8.486 19.831,8.18C20.286,7.692 20.377,7.056 20.216,6.414L20.216,6.415ZM18.738,7.187C18.593,7.324 18.375,7.388 18.16,7.42C15.744,7.779 13.294,7.96 10.852,7.88C9.104,7.82 7.375,7.626 5.645,7.382C5.475,7.358 5.292,7.327 5.175,7.202C4.955,6.966 5.064,6.492 5.121,6.207C5.173,5.947 5.273,5.598 5.584,5.561C6.068,5.504 6.63,5.709 7.11,5.781C7.687,5.869 8.266,5.94 8.847,5.993C11.327,6.219 13.849,6.183 16.319,5.853C16.769,5.793 17.218,5.723 17.664,5.643C18.063,5.571 18.504,5.437 18.744,5.849C18.91,6.13 18.932,6.506 18.906,6.823C18.898,6.961 18.838,7.092 18.737,7.187L18.738,7.187ZM12.579,11.087C11.717,11.457 10.739,11.875 9.47,11.875C8.94,11.874 8.412,11.801 7.901,11.658L8.778,20.662C8.843,21.442 9.495,22.042 10.278,22.042C10.278,22.042 11.521,22.107 11.936,22.107C12.383,22.107 13.722,22.042 13.722,22.042C14.505,22.042 15.156,21.442 15.221,20.662L16.161,10.712C15.737,10.559 15.29,10.478 14.839,10.474C14.013,10.474 13.348,10.758 12.579,11.087Z" style="fill-rule:nonzero;"/>
                </g>
            </g>
        </g>
    </g>
</svg>
